<svg id="visual" viewBox="0 0 1920 1080" width="1920" height="1080" xmlns="http://www.w3.org/2000/svg" xmlns:xlink="http://www.w3.org/1999/xlink" version="1.1"><g stroke-width="1" stroke-linejoin="bevel"><path d="M1056.7 544L1098.7 696L1307 516Z" fill="#b481f8" stroke="#b481f8"></path><path d="M1098.7 696L1252 716L1307 516Z" fill="#8447d5" stroke="#8447d5"></path><path d="M1307 516L1040.7 363L1056.7 544Z" fill="#be8cff" stroke="#be8cff"></path><path d="M1305 351L1040.7 363L1307 516Z" fill="#8447d5" stroke="#8447d5"></path><path d="M1252 716L1466.3 560L1307 516Z" fill="#a16aea" stroke="#a16aea"></path><path d="M1307 516L1466.3 560L1305 351Z" fill="#8447d5" stroke="#8447d5"></path><path d="M1061.7 893L1296 887L1252 716Z" fill="#6522c0" stroke="#6522c0"></path><path d="M1252 716L1473.3 733L1466.3 560Z" fill="#5a11b9" stroke="#5a11b9"></path><path d="M1296 887L1473.3 733L1252 716Z" fill="#a16aea" stroke="#a16aea"></path><path d="M870.3 752L1061.7 893L1098.7 696Z" fill="#7a3cce" stroke="#7a3cce"></path><path d="M1098.7 696L1061.7 893L1252 716Z" fill="#5a11b9" stroke="#5a11b9"></path><path d="M870.3 752L1098.7 696L1056.7 544Z" fill="#a16aea" stroke="#a16aea"></path><path d="M1040.7 363L840.3 546L1056.7 544Z" fill="#6522c0" stroke="#6522c0"></path><path d="M840.3 546L870.3 752L1056.7 544Z" fill="#ab75f1" stroke="#ab75f1"></path><path d="M1305 351L1077.7 212L1040.7 363Z" fill="#be8cff" stroke="#be8cff"></path><path d="M1040.7 363L851.3 349L840.3 546Z" fill="#702fc7" stroke="#702fc7"></path><path d="M874.3 155L851.3 349L1040.7 363Z" fill="#985ee3" stroke="#985ee3"></path><path d="M1683.7 507L1524.3 330L1466.3 560Z" fill="#ab75f1" stroke="#ab75f1"></path><path d="M1466.3 560L1524.3 330L1305 351Z" fill="#b481f8" stroke="#b481f8"></path><path d="M1305 351L1290 155L1077.7 212Z" fill="#a16aea" stroke="#a16aea"></path><path d="M1296 887L1492.3 904L1473.3 733Z" fill="#ab75f1" stroke="#ab75f1"></path><path d="M1692.7 695L1683.7 507L1466.3 560Z" fill="#985ee3" stroke="#985ee3"></path><path d="M1505.3 1080L1492.3 904L1296 887Z" fill="#8e53dc" stroke="#8e53dc"></path><path d="M1517.3 203L1290 155L1305 351Z" fill="#b481f8" stroke="#b481f8"></path><path d="M870.3 752L833.3 876L1061.7 893Z" fill="#8e53dc" stroke="#8e53dc"></path><path d="M649 705L833.3 876L870.3 752Z" fill="#702fc7" stroke="#702fc7"></path><path d="M1035.7 1080L1260 1080L1061.7 893Z" fill="#8e53dc" stroke="#8e53dc"></path><path d="M1061.7 893L1260 1080L1296 887Z" fill="#ab75f1" stroke="#ab75f1"></path><path d="M1692.7 695L1466.3 560L1473.3 733Z" fill="#985ee3" stroke="#985ee3"></path><path d="M1683.7 350L1517.3 203L1524.3 330Z" fill="#ab75f1" stroke="#ab75f1"></path><path d="M1524.3 330L1517.3 203L1305 351Z" fill="#8e53dc" stroke="#8e53dc"></path><path d="M858.3 1080L1035.7 1080L1061.7 893Z" fill="#6522c0" stroke="#6522c0"></path><path d="M1492.3 904L1692.7 695L1473.3 733Z" fill="#985ee3" stroke="#985ee3"></path><path d="M1044.7 0L874.3 155L1077.7 212Z" fill="#8e53dc" stroke="#8e53dc"></path><path d="M1077.7 212L874.3 155L1040.7 363Z" fill="#8447d5" stroke="#8447d5"></path><path d="M1683.7 507L1683.7 350L1524.3 330Z" fill="#be8cff" stroke="#be8cff"></path><path d="M1730.7 201L1683.7 350L1920 389Z" fill="#b481f8" stroke="#b481f8"></path><path d="M632 537L649 705L840.3 546Z" fill="#7a3cce" stroke="#7a3cce"></path><path d="M840.3 546L649 705L870.3 752Z" fill="#6522c0" stroke="#6522c0"></path><path d="M833.3 876L858.3 1080L1061.7 893Z" fill="#ab75f1" stroke="#ab75f1"></path><path d="M632 537L840.3 546L851.3 349Z" fill="#ab75f1" stroke="#ab75f1"></path><path d="M623 344L632 537L851.3 349Z" fill="#ab75f1" stroke="#ab75f1"></path><path d="M1260 1080L1505.3 1080L1296 887Z" fill="#be8cff" stroke="#be8cff"></path><path d="M1492.3 904L1735.7 869L1692.7 695Z" fill="#985ee3" stroke="#985ee3"></path><path d="M670 905L858.3 1080L833.3 876Z" fill="#8e53dc" stroke="#8e53dc"></path><path d="M1474.3 0L1270 0L1290 155Z" fill="#be8cff" stroke="#be8cff"></path><path d="M1290 155L1270 0L1077.7 212Z" fill="#5a11b9" stroke="#5a11b9"></path><path d="M1270 0L1044.7 0L1077.7 212Z" fill="#5a11b9" stroke="#5a11b9"></path><path d="M649 705L670 905L833.3 876Z" fill="#8e53dc" stroke="#8e53dc"></path><path d="M1737.7 1080L1735.7 869L1492.3 904Z" fill="#985ee3" stroke="#985ee3"></path><path d="M1692.7 695L1920 549L1683.7 507Z" fill="#b481f8" stroke="#b481f8"></path><path d="M641 197L623 344L851.3 349Z" fill="#b481f8" stroke="#b481f8"></path><path d="M641 197L851.3 349L874.3 155Z" fill="#a16aea" stroke="#a16aea"></path><path d="M1517.3 203L1474.3 0L1290 155Z" fill="#6522c0" stroke="#6522c0"></path><path d="M1716.7 0L1474.3 0L1517.3 203Z" fill="#5a11b9" stroke="#5a11b9"></path><path d="M1920 389L1683.7 350L1683.7 507Z" fill="#8447d5" stroke="#8447d5"></path><path d="M1683.7 350L1730.7 201L1517.3 203Z" fill="#702fc7" stroke="#702fc7"></path><path d="M820.3 0L641 197L874.3 155Z" fill="#8447d5" stroke="#8447d5"></path><path d="M1044.7 0L820.3 0L874.3 155Z" fill="#7a3cce" stroke="#7a3cce"></path><path d="M1920 742L1920 549L1692.7 695Z" fill="#ab75f1" stroke="#ab75f1"></path><path d="M443.7 356L456.7 532L623 344Z" fill="#5a11b9" stroke="#5a11b9"></path><path d="M623 344L456.7 532L632 537Z" fill="#8e53dc" stroke="#8e53dc"></path><path d="M632 537L456.7 532L649 705Z" fill="#702fc7" stroke="#702fc7"></path><path d="M649 705L429.7 871L670 905Z" fill="#702fc7" stroke="#702fc7"></path><path d="M670 905L642 1080L858.3 1080Z" fill="#985ee3" stroke="#985ee3"></path><path d="M429.7 871L642 1080L670 905Z" fill="#702fc7" stroke="#702fc7"></path><path d="M1505.3 1080L1737.7 1080L1492.3 904Z" fill="#ab75f1" stroke="#ab75f1"></path><path d="M1735.7 869L1920 742L1692.7 695Z" fill="#7a3cce" stroke="#7a3cce"></path><path d="M1920 887L1920 742L1735.7 869Z" fill="#985ee3" stroke="#985ee3"></path><path d="M1920 549L1920 389L1683.7 507Z" fill="#7a3cce" stroke="#7a3cce"></path><path d="M456.7 532L442.7 728L649 705Z" fill="#702fc7" stroke="#702fc7"></path><path d="M641 197L443.7 356L623 344Z" fill="#b481f8" stroke="#b481f8"></path><path d="M456.7 532L245.3 740L442.7 728Z" fill="#985ee3" stroke="#985ee3"></path><path d="M424.7 152L443.7 356L641 197Z" fill="#702fc7" stroke="#702fc7"></path><path d="M1737.7 1080L1920 887L1735.7 869Z" fill="#8447d5" stroke="#8447d5"></path><path d="M1920 0L1716.7 0L1730.7 201Z" fill="#a16aea" stroke="#a16aea"></path><path d="M1730.7 201L1716.7 0L1517.3 203Z" fill="#be8cff" stroke="#be8cff"></path><path d="M245.3 740L429.7 871L442.7 728Z" fill="#702fc7" stroke="#702fc7"></path><path d="M442.7 728L429.7 871L649 705Z" fill="#985ee3" stroke="#985ee3"></path><path d="M820.3 0L619 0L641 197Z" fill="#6522c0" stroke="#6522c0"></path><path d="M1920 389L1920 196L1730.7 201Z" fill="#702fc7" stroke="#702fc7"></path><path d="M619 0L424.7 152L641 197Z" fill="#5a11b9" stroke="#5a11b9"></path><path d="M188.3 557L245.3 740L456.7 532Z" fill="#7a3cce" stroke="#7a3cce"></path><path d="M1737.7 1080L1920 1080L1920 887Z" fill="#ab75f1" stroke="#ab75f1"></path><path d="M192.3 914L422.7 1080L429.7 871Z" fill="#be8cff" stroke="#be8cff"></path><path d="M429.7 871L422.7 1080L642 1080Z" fill="#b481f8" stroke="#b481f8"></path><path d="M1920 196L1920 0L1730.7 201Z" fill="#6522c0" stroke="#6522c0"></path><path d="M619 0L439.7 0L424.7 152Z" fill="#985ee3" stroke="#985ee3"></path><path d="M188.3 557L456.7 532L443.7 356Z" fill="#5a11b9" stroke="#5a11b9"></path><path d="M188.3 557L443.7 356L187.3 352Z" fill="#5a11b9" stroke="#5a11b9"></path><path d="M187.3 352L443.7 356L229.3 151Z" fill="#702fc7" stroke="#702fc7"></path><path d="M229.3 151L443.7 356L424.7 152Z" fill="#8e53dc" stroke="#8e53dc"></path><path d="M0 695L192.3 914L245.3 740Z" fill="#8e53dc" stroke="#8e53dc"></path><path d="M245.3 740L192.3 914L429.7 871Z" fill="#6522c0" stroke="#6522c0"></path><path d="M219.3 0L229.3 151L424.7 152Z" fill="#7a3cce" stroke="#7a3cce"></path><path d="M0 931L184.3 1080L192.3 914Z" fill="#8447d5" stroke="#8447d5"></path><path d="M192.3 914L184.3 1080L422.7 1080Z" fill="#be8cff" stroke="#be8cff"></path><path d="M0 695L245.3 740L188.3 557Z" fill="#be8cff" stroke="#be8cff"></path><path d="M0 392L188.3 557L187.3 352Z" fill="#ab75f1" stroke="#ab75f1"></path><path d="M439.7 0L219.3 0L424.7 152Z" fill="#b481f8" stroke="#b481f8"></path><path d="M0 392L187.3 352L0 192Z" fill="#ab75f1" stroke="#ab75f1"></path><path d="M0 392L0 568L188.3 557Z" fill="#be8cff" stroke="#be8cff"></path><path d="M0 568L0 695L188.3 557Z" fill="#be8cff" stroke="#be8cff"></path><path d="M0 192L187.3 352L229.3 151Z" fill="#6522c0" stroke="#6522c0"></path><path d="M0 695L0 931L192.3 914Z" fill="#8e53dc" stroke="#8e53dc"></path><path d="M0 0L0 192L229.3 151Z" fill="#ab75f1" stroke="#ab75f1"></path><path d="M0 931L0 1080L184.3 1080Z" fill="#6522c0" stroke="#6522c0"></path><path d="M219.3 0L0 0L229.3 151Z" fill="#a16aea" stroke="#a16aea"></path></g></svg>