<svg viewBox="0 0 100 100" xmlns="http://www.w3.org/2000/svg"><path d="M81.5,66.5Q69,83,53.5,77Q38,71,27.5,60.5Q17,50,23.5,32.5Q30,15,45.5,22.5Q61,30,77.5,40Q94,50,81.5,66.5Z" stroke="none" stroke-width="0" fill="#f9eef8"/><path d="M70.5,62Q64,74,49.5,75Q35,76,32,63Q29,50,30,34Q31,18,48,21.5Q65,25,71,37.5Q77,50,70.5,62Z" stroke="none" stroke-width="0" fill="#f5ddf6"/><path d="M82.5,70.5Q74,91,49.5,92Q25,93,17.5,71.5Q10,50,22,36.5Q34,23,50,22.5Q66,22,78.5,36Q91,50,82.5,70.5Z" stroke="none" stroke-width="0" fill="#f1ccf4"/><path d="M84.5,69.5Q72,89,54,81.5Q36,74,28,62Q20,50,23.5,30Q27,10,49,11.5Q71,13,84,31.5Q97,50,84.5,69.5Z" stroke="none" stroke-width="0" fill="#edbbf2"/><path d="M85.5,70.5Q74,91,51.5,89Q29,87,16.5,68.5Q4,50,18.5,35.5Q33,21,51.5,18.5Q70,16,83.5,33Q97,50,85.5,70.5Z" stroke="none" stroke-width="0" fill="#e9aaf0"/><path d="M72,62.5Q64,75,46,81.5Q28,88,19.5,69Q11,50,20.5,32.5Q30,15,45.5,23Q61,31,70.5,40.5Q80,50,72,62.5Z" stroke="none" stroke-width="0" fill="#e599ee"/><path d="M78.5,66.5Q69,83,52.5,78.5Q36,74,22,62Q8,50,19,33Q30,16,48,19Q66,22,77,36Q88,50,78.5,66.5Z" stroke="none" stroke-width="0" fill="#e188ec"/><path d="M75.5,64.5Q67,79,53.5,73.5Q40,68,24.5,59Q9,50,23,39Q37,28,54,20.5Q71,13,77.5,31.5Q84,50,75.5,64.5Z" stroke="none" stroke-width="0" fill="#dd77ea"/></svg>